<svg xmlns="http://www.w3.org/2000/svg" viewBox="0 0 750 420" preserveAspectRatio="xMidYMid slice">
  <rect width="750" height="420" fill="#1c2430"/>
  <rect x="40" y="30" width="670" height="360" rx="18" fill="#2b3546"/>
  <rect x="70" y="58" width="610" height="48" rx="8" fill="#2f6bff"/>
  <text x="375" y="90" text-anchor="middle" fill="#fff" font-size="26" font-family="PingFang SC, sans-serif">b5ÜÑo</text>
  <g fill="#121820">
    <rect x="90" y="130" width="120" height="110" rx="8"/>
    <rect x="240" y="130" width="120" height="110" rx="8"/>
    <rect x="390" y="130" width="120" height="110" rx="8"/>
    <rect x="540" y="130" width="120" height="110" rx="8"/>
    <rect x="90" y="260" width="120" height="100" rx="8"/>
    <rect x="240" y="260" width="120" height="100" rx="8"/>
    <rect x="390" y="260" width="120" height="100" rx="8"/>
    <rect x="540" y="260" width="120" height="100" rx="8"/>
  </g>
  <g fill="#3dd68c">
    <rect x="102" y="142" width="96" height="86" rx="6"/>
    <rect x="252" y="142" width="96" height="86" rx="6"/>
    <rect x="552" y="142" width="96" height="86" rx="6"/>
    <rect x="252" y="272" width="96" height="76" rx="6"/>
  </g>
  <g fill="#f5c542">
    <rect x="402" y="142" width="96" height="86" rx="6"/>
    <rect x="102" y="272" width="96" height="76" rx="6"/>
  </g>
</svg>
